/vscmnt/brussel_pixiu_data/_data_brussel/112/vsc11236/PredSimResults/SUBJ06mtu3D/weighted-LRposFixed/trackIG/worker_05.mot
version=1
nRows=4
nColumns=50
inDegrees=yes
endheader
                time	         pelvis_tilt	         pelvis_list	     pelvis_rotation	           pelvis_tx	           pelvis_ty	           pelvis_tz	       hip_flexion_r	     hip_adduction_r	      hip_rotation_r	        knee_angle_r	       ankle_angle_r	         mtp_angle_r	       hip_flexion_l	     hip_adduction_l	      hip_rotation_l	        knee_angle_l	       ankle_angle_l	         mtp_angle_l	    lumbar_extension	      lumbar_bending	     lumbar_rotation	 ercspn_r/activation	 intobl_r/activation	 extobl_r/activation	    abd_r/activation	    add_r/activation	hamstrings_r/activation	bifemsh_r/activation	glut_max_r/activation	iliopsoas_r/activation	rect_fem_r/activation	  vasti_r/activation	gastroc_r/activation	 soleus_r/activation	tib_ant_r/activation	 ercspn_l/activation	 intobl_l/activation	 extobl_l/activation	    abd_l/activation	    add_l/activation	hamstrings_l/activation	bifemsh_l/activation	glut_max_l/activation	iliopsoas_l/activation	rect_fem_l/activation	  vasti_l/activation	gastroc_l/activation	 soleus_l/activation	tib_ant_l/activation	
          1.38217207	         -7.41099057	         -4.84066712	         11.04788676	          1.36835035	          0.93118902	         -0.02081554	         28.74378383	          0.38207985	         -6.08839919	          0.15953968	          5.82810941	          0.22601592	         -8.72805272	         -4.77931525	         10.08725502	         -7.59679680	         10.44911139	         29.33068336	         -1.40710228	          2.55578086	         -2.58953293	          0.08488223	          0.15157088	          0.02291560	          0.00999999	          0.13742602	          0.06248842	          0.17210998	          0.02608254	          0.08624669	          0.01000000	          0.00999999	          0.01337100	          0.00999999	          0.27101870	          0.06890720	          0.00999999	          0.00999999	          0.06777253	          0.02267160	          0.01549955	          0.12894486	          0.07540964	          0.43326066	          0.00999999	          0.00999999	          0.34901534	          0.34307830	          0.01305770	
          1.39599379	         -7.53488686	         -4.75654830	         11.05119941	          1.38529361	          0.92899074	         -0.02000536	         28.79892781	          0.54041106	         -5.68808664	         -1.47055140	          5.39925782	          0.19579308	         -9.09819543	         -4.76928557	          9.55080940	         -8.63532650	          9.88518097	         31.12469598	         -1.08319084	          2.86244089	         -2.75483511	          0.06898964	          0.14673368	          0.01862509	          0.00999999	          0.12445252	          0.06121483	          0.13988564	          0.05800791	          0.07009863	          0.00999999	          0.00999999	          0.01862513	          0.01507953	          0.30465742	          0.08300775	          0.00999999	          0.00999999	          0.05508341	          0.04278263	          0.01356804	          0.10480237	          0.06129061	          0.40567994	          0.00999999	          0.00999999	          0.32359765	          0.32515861	          0.01061289	
          1.40981551	         -7.63729585	         -4.66209194	         10.98724715	          1.40263692	          0.92714423	         -0.01909862	         28.63250498	          0.69948419	         -5.31604161	         -2.77618777	          4.80119489	          0.19016073	         -9.35374213	         -4.72764844	          8.97946909	         -9.95943832	          9.14138837	         32.98617937	         -0.74601773	          3.17306325	         -2.89766286	          0.07204535	          0.11926058	          0.01513789	          0.05482247	          0.10577066	          0.06206416	          0.11369470	          0.08336751	          0.05697399	          0.00999999	          0.00999999	          0.01513793	          0.01225617	          0.35016219	          0.09605404	          0.00999999	          0.00999999	          0.04477008	          0.03477240	          0.01655141	          0.08518011	          0.04981510	          0.38221490	          0.01000000	          0.01000000	          0.29490386	          0.30007836	          0.00999999	
          1.42363723	         -7.71945524	         -4.55038195	         10.85901001	          1.42012190	          0.92587448	         -0.01808602	         28.31087509	          0.87301007	         -5.00729314	         -3.84173892	          4.15737699	          0.16000516	         -9.41907449	         -4.63988828	          8.38169259	        -11.65597689	          8.15656215	         34.90120547	         -0.42183205	          3.47962267	         -3.01312236	          0.07801078	          0.09693129	          0.01230361	          0.09957117	          0.12245814	          0.05985883	          0.09240752	          0.11275870	          0.04630668	          0.00999999	          0.00999999	          0.01230364	          0.00999999	          0.38235795	          0.12514809	          0.00999999	          0.00999999	          0.03638773	          0.04433167	          0.02248087	          0.06923175	          0.04048817	          0.37270411	          0.01000003	          0.01513789	          0.24487718	          0.26850839	          0.00999999	
